<svg xmlns="http://www.w3.org/2000/svg" style="display: none;"><symbol id="email" viewBox="0 0 512 512"><title>email</title><path clip-rule="evenodd" d="m256 512c-141.159 0-256-114.841-256-256s114.841-256 256-256 256 114.841 256 256-114.841 256-256 256zm132.758-166.069c3.156 0 5.725-2.568 5.725-5.725v-160.717l-130.25 103.432c-2.41 1.915-5.323 2.872-8.234 2.872s-5.823-.958-8.234-2.872l-130.249-103.432v160.717c0 3.157 2.569 5.725 5.725 5.725zm-19.96-179.862-112.798 89.575-112.799-89.575zm52.168 5.725v168.414c0 17.759-14.449 32.208-32.208 32.208h-265.517c-17.76 0-32.207-14.449-32.207-32.208v-168.414c0-17.759 14.448-32.207 32.207-32.207h265.517c17.759-.001 32.208 14.448 32.208 32.207z" fill-rule="evenodd"/></symbol><symbol id="linkedin" viewBox="0 0 512 512"><title>linkedin</title><path d="m256.6179 13.9286c-137.1859 0-248.4179 110.5371-248.4179 247.8027 0 136.042 111.2321 247.7959 248.418 247.7959s247.182-111.7539 247.182-247.7959c0-137.2656-109.9963-247.8027-247.1822-247.8027zm-61.7956 368.0537h-63.0314v-217.4307h63.0314zm-29.6618-230.7949c-16.0668 0-28.4259-12.1475-28.4259-29.1485 0-15.791 12.3591-29.1553 28.4259-29.1553 16.0668 1.2168 29.6618 13.3643 29.6618 29.1553 0 17.001-13.595 29.1485-29.6618 29.1485zm245.946 230.7949h-61.7954v-134.8323c0-15.791-4.9435-26.7216-23.4823-26.7216-32.1336 0-38.3131 26.7216-38.3131 26.7216v134.8323h-61.7957v-217.4307h61.7956v20.6514c8.6513-6.0772 30.8978-20.6514 61.7954-20.6514 19.7746 0 61.7954 12.1475 61.7954 85.0322v132.3985z" fill-rule="evenodd"/></symbol><symbol id="twitter-social-logotype" viewBox="0 0 97.75 97.75"><title>twitter-social-logotype</title><path d="M48.875,0C21.882,0,0,21.882,0,48.875S21.882,97.75,48.875,97.75S97.75,75.868,97.75,48.875S75.868,0,48.875,0z M78.43,35.841c0.023,0.577,0.035,1.155,0.035,1.736c0,20.878-15.887,42.473-42.473,42.473c-8.127,0-16.04-2.319-22.883-6.708 c-0.143-0.091-0.202-0.268-0.145-0.427c0.057-0.158,0.218-0.256,0.383-0.237c1.148,0.137,2.322,0.205,3.487,0.205 c6.323,0,12.309-1.955,17.372-5.664c-6.069-0.512-11.285-4.619-13.161-10.478c-0.039-0.122-0.011-0.255,0.073-0.351 c0.085-0.096,0.215-0.138,0.339-0.115c1.682,0.319,3.392,0.34,5.04,0.072c-6.259-1.945-10.658-7.808-10.658-14.483l0.002-0.194 c0.003-0.127,0.072-0.243,0.182-0.306c0.109-0.064,0.245-0.065,0.355-0.003c1.632,0.906,3.438,1.488,5.291,1.711 c-3.597-2.867-5.709-7.213-5.709-11.862c0-2.682,0.71-5.318,2.054-7.623c0.06-0.103,0.166-0.169,0.284-0.178 c0.119-0.012,0.234,0.04,0.309,0.132c7.362,9.03,18.191,14.59,29.771,15.305c-0.193-0.972-0.291-1.974-0.291-2.985 c0-8.361,6.802-15.162,15.162-15.162c4.11,0,8.082,1.689,10.929,4.641c3.209-0.654,6.266-1.834,9.09-3.508 c0.129-0.077,0.291-0.065,0.41,0.028c0.116,0.094,0.164,0.25,0.118,0.394c-0.957,2.993-2.823,5.604-5.33,7.489 c2.361-0.411,4.652-1.105,6.831-2.072c0.146-0.067,0.319-0.025,0.424,0.098c0.104,0.124,0.113,0.301,0.023,0.435 C83.759,31.175,81.299,33.744,78.43,35.841z"/></symbol><symbol id="github-logo" viewBox="0 0 35.318 35.318"><title>github-logo</title><path d="M23.71,34.689c-0.172,0.062-0.345,0.137-0.522,0.168c-0.678,0.121-1.112-0.229-1.116-0.922 c-0.009-1.287-0.009-2.572,0.012-3.859c0.022-1.48-0.012-2.941-1.139-4.162c0.67-0.12,1.266-0.204,1.849-0.338 c3.862-0.887,5.868-3.323,6.124-7.366c0.131-2.058-0.236-3.946-1.604-5.567c-0.099-0.114-0.104-0.373-0.057-0.539 c0.364-1.34,0.258-2.649-0.166-3.959c-0.105-0.327-0.279-0.428-0.602-0.407c-1.134,0.063-2.173,0.461-3.089,1.073 c-0.883,0.593-1.705,0.722-2.754,0.482c-2.31-0.521-4.635-0.369-6.94,0.165c-0.261,0.062-0.612-0.021-0.851-0.161 c-1.082-0.634-2.164-1.25-3.412-1.496c-0.965-0.188-1.049-0.14-1.305,0.793C7.816,9.77,7.784,10.947,8.113,12.13 c0.047,0.172-0.002,0.448-0.117,0.575c-2.557,2.853-1.631,8.244,0.092,10.309c1.34,1.604,3.12,2.326,5.096,2.701 c0.345,0.064,0.688,0.113,1.033,0.173c-0.296,0.77-0.562,1.497-0.863,2.212c-0.059,0.138-0.246,0.254-0.399,0.312 c-1.938,0.752-3.604,0.199-4.713-1.56c-0.593-0.938-1.354-1.639-2.488-1.842c-0.036-0.007-0.073-0.026-0.106-0.021 c-0.305,0.08-0.607,0.164-0.911,0.246c0.171,0.238,0.292,0.558,0.521,0.701c0.961,0.608,1.586,1.475,1.999,2.498 c0.649,1.604,1.909,2.319,3.546,2.459c0.799,0.065,1.606,0.01,2.481,0.01c0,0.996,0.036,2.133-0.015,3.265 c-0.026,0.61-0.639,0.854-1.373,0.604c-1.947-0.666-3.752-1.621-5.311-2.963C0.956,26.96-1.214,20.83,0.657,13.655 C2.522,6.503,7.383,2.116,14.651,0.739C24.708-1.163,34.235,6.161,35.233,16.37C36.021,24.418,31.284,31.949,23.71,34.689z M14.229,25.85c-0.006,0.014-0.01,0.024-0.016,0.038c0.018,0.003,0.036,0.006,0.055,0.009 C14.282,25.898,14.294,25.923,14.229,25.85z M9.679,29.031c0.157,0.097,0.307,0.22,0.477,0.273c0.062,0.02,0.177-0.121,0.38-0.271 c-0.282-0.107-0.448-0.201-0.623-0.225C9.845,28.8,9.757,28.953,9.679,29.031z M11.112,29.277c0.023,0.105,0.232,0.236,0.355,0.234 c0.119-0.002,0.235-0.16,0.354-0.25c-0.108-0.099-0.216-0.195-0.548-0.494C11.201,28.975,11.082,29.143,11.112,29.277z M12.87,28.854c-0.148,0.035-0.273,0.172-0.408,0.266c0.079,0.1,0.158,0.193,0.285,0.35c0.175-0.16,0.294-0.271,0.414-0.379 C13.061,29.004,12.944,28.836,12.87,28.854z M8.512,28.261c0.082,0.155,0.209,0.289,0.381,0.508 c0.115-0.188,0.24-0.332,0.218-0.361c-0.109-0.143-0.257-0.26-0.403-0.367C8.698,28.033,8.495,28.227,8.512,28.261z"/></symbol><symbol id="external-link-symbol" viewBox="0 0 511.626 511.627"><title>external-link-symbol</title><path d="M392.857,292.354h-18.274c-2.669,0-4.859,0.855-6.563,2.573c-1.718,1.708-2.573,3.897-2.573,6.563v91.361 c0,12.563-4.47,23.315-13.415,32.262c-8.945,8.945-19.701,13.414-32.264,13.414H82.224c-12.562,0-23.317-4.469-32.264-13.414 c-8.945-8.946-13.417-19.698-13.417-32.262V155.31c0-12.562,4.471-23.313,13.417-32.259c8.947-8.947,19.702-13.418,32.264-13.418 h200.994c2.669,0,4.859-0.859,6.57-2.57c1.711-1.713,2.566-3.9,2.566-6.567V82.221c0-2.662-0.855-4.853-2.566-6.563 c-1.711-1.713-3.901-2.568-6.57-2.568H82.224c-22.648,0-42.016,8.042-58.102,24.125C8.042,113.297,0,132.665,0,155.313v237.542 c0,22.647,8.042,42.018,24.123,58.095c16.086,16.084,35.454,24.13,58.102,24.13h237.543c22.647,0,42.017-8.046,58.101-24.13 c16.085-16.077,24.127-35.447,24.127-58.095v-91.358c0-2.669-0.856-4.859-2.574-6.57 C397.709,293.209,395.519,292.354,392.857,292.354z"/><path d="M506.199,41.971c-3.617-3.617-7.905-5.424-12.85-5.424H347.171c-4.948,0-9.233,1.807-12.847,5.424 c-3.617,3.615-5.428,7.898-5.428,12.847s1.811,9.233,5.428,12.85l50.247,50.248L198.424,304.067 c-1.906,1.903-2.856,4.093-2.856,6.563c0,2.479,0.953,4.668,2.856,6.571l32.548,32.544c1.903,1.903,4.093,2.852,6.567,2.852 s4.665-0.948,6.567-2.852l186.148-186.148l50.251,50.248c3.614,3.617,7.898,5.426,12.847,5.426s9.233-1.809,12.851-5.426 c3.617-3.616,5.424-7.898,5.424-12.847V54.818C511.626,49.866,509.813,45.586,506.199,41.971z"/></symbol><symbol id="arrow" viewBox="0 0 64 64"><title>arrow</title><path d="m55.83 6.17h-47.66a2 2 0 0 0 -2 2v47.66a2 2 0 0 0 2 2h47.66a2 2 0 0 0 2-2v-47.66a2 2 0 0 0 -2-2zm-2 47.67h-43.66v-43.67h43.66z"/><path d="m38.13 27.88a2 2 0 0 0 1.41-.59l7.85-7.85v3.26a2 2 0 0 0 4 0v-8.09a2 2 0 0 0 -2-2h-8.09a2 2 0 1 0 0 4h3.26l-7.85 7.85a2 2 0 0 0 1.41 3.41z"/></symbol></svg>